<svg width="14" height="14" viewBox="0 0 14 14" fill="none" xmlns="http://www.w3.org/2000/svg">
<path fill-rule="evenodd" clip-rule="evenodd" d="M9.24568 1.45871C9.61376 1.45871 9.98126 1.51063 10.3307 1.62788C12.4838 2.32788 13.2596 4.69038 12.6115 6.75538C12.244 7.81063 11.6432 8.77371 10.8563 9.56063C9.72985 10.6515 8.49376 11.6198 7.16318 12.454L7.01735 12.542L6.86568 12.4481C5.53043 11.6198 4.28735 10.6515 3.15043 9.55479C2.36876 8.76788 1.76735 7.81063 1.39401 6.75538C0.734847 4.69038 1.51068 2.32788 3.6871 1.61563C3.85626 1.55729 4.03068 1.51646 4.20568 1.49371H4.27568C4.4396 1.46979 4.60235 1.45871 4.76568 1.45871H4.82985C5.19735 1.46979 5.55318 1.53396 5.89793 1.65121H5.93235C5.95568 1.66229 5.97318 1.67454 5.98485 1.68563C6.11376 1.72704 6.23568 1.77371 6.35235 1.83788L6.57401 1.93704C6.62758 1.96561 6.6877 2.00926 6.73966 2.04699C6.77258 2.07089 6.80222 2.09241 6.82485 2.10621C6.83437 2.11183 6.84404 2.11748 6.8538 2.12317C6.90381 2.15237 6.95591 2.18278 6.99985 2.21646C7.64793 1.72121 8.43485 1.45288 9.24568 1.45871ZM10.7974 5.65871C11.0365 5.6523 11.2407 5.46038 11.2582 5.2148V5.14538C11.2757 4.32813 10.7804 3.58788 10.0274 3.30205C9.78819 3.2198 9.52569 3.34871 9.43819 3.59371C9.35652 3.83871 9.48485 4.10705 9.72985 4.19396C10.1038 4.33396 10.354 4.70205 10.354 5.1098V5.12788C10.3429 5.26146 10.3832 5.39038 10.4649 5.48955C10.5465 5.58871 10.669 5.64646 10.7974 5.65871Z" fill="white"/>
</svg>
